<?xml version="1.0" encoding="UTF-8"?>
<!DOCTYPE svg PUBLIC "-//W3C//DTD SVG 1.1//EN" "http://www.w3.org/Graphics/SVG/1.1/DTD/svg11.dtd">
<!-- Creator: CorelDRAW X7 -->
<svg xmlns="http://www.w3.org/2000/svg" xml:space="preserve" width="43.3492mm" height="43.3492mm" version="1.1" style="shape-rendering:geometricPrecision; text-rendering:geometricPrecision; image-rendering:optimizeQuality; fill-rule:evenodd; clip-rule:evenodd"
viewBox="0 0 1281 1281"
 xmlns:xlink="http://www.w3.org/1999/xlink">
 <defs>
  <style type="text/css">
   <![CDATA[
    .fil0 {fill:#4B53E2}
    .fil1 {fill:#FEFEFE;fill-rule:nonzero}
   ]]>
  </style>
 </defs>
 <g id="Camada_x0020_1">
  <metadata id="CorelCorpID_0Corel-Layer"/>
  <circle class="fil0" cx="640" cy="640" r="640"/>
  <g id="_2575800551024">
   <path class="fil1" d="M659 295l-194 0c-42,0 -79,32 -81,74 -2,24 7,46 23,61 14,14 34,23 55,23l174 0c45,0 62,23 62,58 0,34 -17,58 -62,58l-175 0c-43,0 -78,34 -78,77 0,43 35,78 78,78l198 0c157,0 238,-97 238,-213 0,-127 -81,-216 -238,-216z"/>
   <path class="fil1" d="M586 884l0 3c0,54 -44,98 -99,98 -54,0 -98,-44 -98,-98l0 -3c0,-54 44,-98 98,-98 55,0 99,44 99,98z"/>
  </g>
 </g>
</svg>