<?xml version="1.0" standalone="no"?>
<!DOCTYPE svg PUBLIC "-//W3C//DTD SVG 20010904//EN"
 "http://www.w3.org/TR/2001/REC-SVG-20010904/DTD/svg10.dtd">
<svg version="1.0" xmlns="http://www.w3.org/2000/svg"
 width="512.000000pt" height="512.000000pt" viewBox="0 0 512.000000 512.000000"
 preserveAspectRatio="xMidYMid meet">

<g transform="translate(0.000000,512.000000) scale(0.100000,-0.100000)"
fill="#000000" stroke="none">
<path d="M2475 5106 c-412 -71 -764 -356 -921 -744 -69 -174 -88 -281 -88
-502 0 -178 3 -214 26 -312 71 -304 237 -565 479 -748 212 -161 452 -248 719
-266 315 -22 614 69 870 266 332 251 528 635 528 1040 0 631 -425 1188 -1035
1360 -159 46 -420 57 -577 24z"/>
<path d="M1285 2455 c-566 -103 -1021 -464 -1253 -980 -100 -222 -142 -419
-142 -660 0 -894 725 -1636 1620 -1635 408 0 775 137 1090 410 67 58 180 169
251 246 l126 138 130 -141 c310 -338 655 -533 1063 -606 149 -26 415 -29 560
-6 696 114 1263 620 1465 1290 59 195 75 306 75 534 0 237 -16 350 -75 540
-153 491 -563 921 -1060 1103 -63 23 -145 49 -182 58 -64 15 -121 20 -386 34
-23 1 -29 -6 -48 -55 -11 -31 -28 -68 -37 -83 l-16 -27 -26 39 c-38 59 -128
146 -206 197 -264 174 -613 209 -908 91 -199 -79 -376 -222 -482 -389 -26 -41
-52 -75 -58 -75 -5 0 -28 30 -51 66 -60 95 -169 205 -271 272 -143 95 -313
157 -474 171 -59 5 -236 -4 -285 -13z"/>
</g>
</svg>